<svg width="24" height="24" viewBox="0 0 24 24" fill="none" xmlns="http://www.w3.org/2000/svg">
<path opacity="0.4" d="M2.09998 22V6.03003C2.09998 4.02003 3.10003 3.01001 5.09003 3.01001H11.32C13.31 3.01001 14.3 4.02003 14.3 6.03003V22" fill="#13181D"/>
<path d="M10.75 9H5.79999C5.38999 9 5.04999 8.66 5.04999 8.25C5.04999 7.84 5.38999 7.5 5.79999 7.5H10.75C11.16 7.5 11.5 7.84 11.5 8.25C11.5 8.66 11.16 9 10.75 9Z" fill="#13181D"/>
<path d="M10.75 12.75H5.79999C5.38999 12.75 5.04999 12.41 5.04999 12C5.04999 11.59 5.38999 11.25 5.79999 11.25H10.75C11.16 11.25 11.5 11.59 11.5 12C11.5 12.41 11.16 12.75 10.75 12.75Z" fill="#13181D"/>
<path d="M8.25 22.75C7.84 22.75 7.5 22.41 7.5 22V18.25C7.5 17.84 7.84 17.5 8.25 17.5C8.66 17.5 9 17.84 9 18.25V22C9 22.41 8.66 22.75 8.25 22.75Z" fill="#13181D"/>
<path d="M23 21.25H20.73V18.25C21.68 17.94 22.37 17.05 22.37 16V14C22.37 12.69 21.3 11.62 19.99 11.62C18.68 11.62 17.61 12.69 17.61 14V16C17.61 17.04 18.29 17.92 19.22 18.24V21.25H1C0.59 21.25 0.25 21.59 0.25 22C0.25 22.41 0.59 22.75 1 22.75H19.93C19.95 22.75 19.96 22.76 19.98 22.76C20 22.76 20.01 22.75 20.03 22.75H23C23.41 22.75 23.75 22.41 23.75 22C23.75 21.59 23.41 21.25 23 21.25Z" fill="#13181D"/>
</svg>
