<svg width="40" height="40" viewBox="0 0 40 40" fill="none" xmlns="http://www.w3.org/2000/svg">
<rect width="40" height="40" rx="20" fill="#F97316"/>
<path d="M28.3084 25.275C28.3084 25.575 28.2417 25.8834 28.1 26.1834C27.9584 26.4834 27.775 26.7667 27.5334 27.0334C27.125 27.4834 26.675 27.8084 26.1667 28.0167C25.6667 28.225 25.125 28.3334 24.5417 28.3334C23.6917 28.3334 22.7834 28.1334 21.825 27.725C20.8667 27.3167 19.9084 26.7667 18.9584 26.075C18 25.375 17.0917 24.6 16.225 23.7417C15.3667 22.875 14.5917 21.9667 13.9 21.0167C13.2167 20.0667 12.6667 19.1167 12.2667 18.175C11.8667 17.225 11.6667 16.3167 11.6667 15.45C11.6667 14.8834 11.7667 14.3417 11.9667 13.8417C12.1667 13.3334 12.4834 12.8667 12.925 12.45C13.4584 11.925 14.0417 11.6667 14.6584 11.6667C14.8917 11.6667 15.125 11.7167 15.3334 11.8167C15.55 11.9167 15.7417 12.0667 15.8917 12.2834L17.825 15.0084C17.975 15.2167 18.0834 15.4084 18.1584 15.5917C18.2334 15.7667 18.275 15.9417 18.275 16.1C18.275 16.3 18.2167 16.5 18.1 16.6917C17.9917 16.8834 17.8334 17.0834 17.6334 17.2834L17 17.9417C16.9084 18.0334 16.8667 18.1417 16.8667 18.275C16.8667 18.3417 16.875 18.4 16.8917 18.4667C16.9167 18.5334 16.9417 18.5834 16.9584 18.6334C17.1084 18.9084 17.3667 19.2667 17.7334 19.7C18.1084 20.1334 18.5084 20.575 18.9417 21.0167C19.3917 21.4584 19.825 21.8667 20.2667 22.2417C20.7 22.6084 21.0584 22.8584 21.3417 23.0084C21.3834 23.025 21.4334 23.05 21.4917 23.075C21.5584 23.1 21.625 23.1084 21.7 23.1084C21.8417 23.1084 21.95 23.0584 22.0417 22.9667L22.675 22.3417C22.8834 22.1334 23.0834 21.975 23.275 21.875C23.4667 21.7584 23.6584 21.7 23.8667 21.7C24.025 21.7 24.1917 21.7334 24.375 21.8084C24.5584 21.8834 24.75 21.9917 24.9584 22.1334L27.7167 24.0917C27.9334 24.2417 28.0834 24.4167 28.175 24.625C28.2584 24.8334 28.3084 25.0417 28.3084 25.275Z" stroke="white" stroke-width="2" stroke-miterlimit="10"/>
</svg>
