<svg width="25" height="24" viewBox="0 0 25 24" fill="none" xmlns="http://www.w3.org/2000/svg">
<path opacity="0.4" d="M19.5 10.28V17.43C19.47 20.28 18.69 21 15.72 21H6.28003C3.26003 21 2.5 20.25 2.5 17.27V10.28C2.5 7.58 3.13 6.71 5.5 6.57C5.74 6.56 6.00003 6.55 6.28003 6.55H15.72C18.74 6.55 19.5 7.3 19.5 10.28Z" fill="#13181D"/>
<path d="M22.5 6.73V13.72C22.5 16.42 21.87 17.29 19.5 17.43V10.28C19.5 7.3 18.74 6.55 15.72 6.55H6.28003C6.00003 6.55 5.74 6.56 5.5 6.57C5.53 3.72 6.31003 3 9.28003 3H18.72C21.74 3 22.5 3.75 22.5 6.73Z" fill="#13181D"/>
<path d="M7.46002 18.56H5.73999C5.32999 18.56 4.98999 18.22 4.98999 17.81C4.98999 17.4 5.32999 17.06 5.73999 17.06H7.46002C7.87002 17.06 8.21002 17.4 8.21002 17.81C8.21002 18.22 7.88002 18.56 7.46002 18.56Z" fill="#13181D"/>
<path d="M13.05 18.56H9.60999C9.19999 18.56 8.85999 18.22 8.85999 17.81C8.85999 17.4 9.19999 17.06 9.60999 17.06H13.05C13.46 17.06 13.8 17.4 13.8 17.81C13.8 18.22 13.47 18.56 13.05 18.56Z" fill="#13181D"/>
<path d="M19.5 11.86H2.5V13.36H19.5V11.86Z" fill="#13181D"/>
</svg>
