<svg width="50" height="50" viewBox="0 0 50 50" fill="none" xmlns="http://www.w3.org/2000/svg">
<rect width="50" height="50" rx="25" fill="#07B704"/>
<path d="M14.1666 22.8333H35.8333" stroke="white" stroke-width="2" stroke-miterlimit="10" stroke-linecap="round" stroke-linejoin="round"/>
<path d="M24.5106 34.2081H18.9748C15.1289 34.2081 14.1539 33.2548 14.1539 29.4523V20.5473C14.1539 17.1023 14.9556 15.9973 17.9781 15.8239C18.2815 15.8131 18.6173 15.8022 18.9748 15.8022H31.0106C34.8564 15.8022 35.8314 16.7556 35.8314 20.5581V25.3356" stroke="white" stroke-width="2" stroke-linecap="round" stroke-linejoin="round"/>
<path d="M18.5 29.3333H22.8333" stroke="white" stroke-width="2" stroke-miterlimit="10" stroke-linecap="round" stroke-linejoin="round"/>
<path d="M35.8333 31.5C35.8333 32.3125 35.6058 33.0817 35.2049 33.7317C34.4574 34.9884 33.0816 35.8334 31.5 35.8334C29.9183 35.8334 28.5425 34.9884 27.795 33.7317C27.3941 33.0817 27.1666 32.3125 27.1666 31.5C27.1666 29.1059 29.1058 27.1667 31.5 27.1667C33.8941 27.1667 35.8333 29.1059 35.8333 31.5Z" stroke="white" stroke-width="2" stroke-miterlimit="10" stroke-linecap="round" stroke-linejoin="round"/>
<path d="M29.8115 31.4995L30.884 32.572L33.1915 30.4378" stroke="white" stroke-width="2" stroke-linecap="round" stroke-linejoin="round"/>
</svg>
