<svg width="25" height="24" viewBox="0 0 25 24" fill="none" xmlns="http://www.w3.org/2000/svg">
<path opacity="0.4" d="M12.5 22C18.0228 22 22.5 17.5228 22.5 12C22.5 6.47715 18.0228 2 12.5 2C6.97715 2 2.5 6.47715 2.5 12C2.5 17.5228 6.97715 22 12.5 22Z" fill="#13181D"/>
<path d="M16.21 15.93C16.08 15.93 15.95 15.9 15.83 15.82L12.73 13.97C11.96 13.51 11.39 12.5 11.39 11.61V7.51001C11.39 7.10001 11.73 6.76001 12.14 6.76001C12.55 6.76001 12.89 7.10001 12.89 7.51001V11.61C12.89 11.97 13.19 12.5 13.5 12.68L16.6 14.53C16.96 14.74 17.07 15.2 16.86 15.56C16.71 15.8 16.46 15.93 16.21 15.93Z" fill="#13181D"/>
</svg>
