<svg width="50" height="50" viewBox="0 0 50 50" fill="none" xmlns="http://www.w3.org/2000/svg">
<rect width="50" height="50" rx="25" fill="#F97316"/>
<path d="M32.3073 21.4066C31.5598 20.1119 32.0039 18.4545 33.2986 17.707L32.7569 16.7688C30.5903 13.016 29.1104 12.6195 25.3576 14.7861L15.9757 20.2028C12.2229 22.3695 11.8264 23.8493 13.9931 27.6021L14.2639 28.0712C15.5586 27.3237 17.216 27.7678 17.9635 29.0625C18.711 30.3572 18.2669 32.0147 16.9722 32.7622L17.2431 33.2313C19.4097 36.984 20.8896 37.3806 24.6424 35.2139L34.0243 29.7972C37.7771 27.6306 38.1736 26.1507 36.0069 22.3979C34.7122 23.1454 33.0548 22.7013 32.3073 21.4066Z" stroke="white" stroke-width="2" stroke-linecap="round" stroke-linejoin="round"/>
<path d="M23.675 29.2051L26.0542 20.3259" stroke="white" stroke-width="2" stroke-linecap="round" stroke-linejoin="round"/>
<path d="M29.299 25.9581L29.3075 25.9532" stroke="white" stroke-width="2" stroke-linecap="round" stroke-linejoin="round"/>
<path d="M20.6907 24.0479L20.6991 24.0431" stroke="white" stroke-width="2" stroke-linecap="round" stroke-linejoin="round"/>
</svg>
