<svg width="22" height="22" viewBox="0 0 22 22" fill="none" xmlns="http://www.w3.org/2000/svg">
<path opacity="0.4" d="M15.9683 1.26502C15.7758 1.13669 15.5375 1.10917 15.3267 1.19167C14.0158 1.71417 12.5675 1.71417 11.2567 1.19167C11.0458 1.10917 10.8075 1.13669 10.615 1.26502C10.4225 1.39335 10.3125 1.60418 10.3125 1.83335V4.58335V7.33335C10.3125 7.70918 10.6242 8.02085 11 8.02085C11.3758 8.02085 11.6875 7.70918 11.6875 7.33335V5.51837C12.2192 5.6467 12.7508 5.72001 13.2917 5.72001C14.1533 5.72001 15.015 5.55503 15.84 5.22503C16.0967 5.12419 16.2708 4.86752 16.2708 4.58335V1.83335C16.2708 1.60418 16.1608 1.39335 15.9683 1.26502Z" fill="white"/>
<path d="M20.1667 19.4792H19.0208V10.0833C19.0208 7.86501 17.8017 6.64584 15.5833 6.64584H6.41666C4.19833 6.64584 2.97916 7.86501 2.97916 10.0833V19.4792H1.83333C1.45749 19.4792 1.14583 19.7908 1.14583 20.1667C1.14583 20.5425 1.45749 20.8542 1.83333 20.8542H3.66666H18.3333H20.1667C20.5425 20.8542 20.8542 20.5425 20.8542 20.1667C20.8542 19.7908 20.5425 19.4792 20.1667 19.4792ZM17.6458 11.6875V19.4792H15.345V11.6875H17.6458ZM10.3033 19.4792H8.01166V11.6875H10.3033V19.4792ZM11.6783 11.6875H13.97V19.4792H11.6783V11.6875ZM4.35416 11.6875H6.63666V19.4792H4.35416V11.6875Z" fill="white"/>
</svg>
