<svg width="24" height="24" viewBox="0 0 24 24" fill="none" xmlns="http://www.w3.org/2000/svg">
<path opacity="0.4" d="M17.42 1.38002C17.21 1.24002 16.95 1.21 16.72 1.3C15.29 1.87 13.71 1.87 12.28 1.3C12.05 1.21 11.79 1.24002 11.58 1.38002C11.37 1.52002 11.25 1.75001 11.25 2.00001V5.00001V8.00001C11.25 8.41001 11.59 8.75001 12 8.75001C12.41 8.75001 12.75 8.41001 12.75 8.00001V6.02003C13.33 6.16003 13.91 6.24 14.5 6.24C15.44 6.24 16.38 6.06002 17.28 5.70002C17.56 5.59002 17.75 5.31001 17.75 5.00001V2.00001C17.75 1.75001 17.63 1.52002 17.42 1.38002Z" fill="#13181D"/>
<path d="M22 21.25H20.75V11C20.75 8.58 19.42 7.25 17 7.25H7C4.58 7.25 3.25 8.58 3.25 11V21.25H2C1.59 21.25 1.25 21.59 1.25 22C1.25 22.41 1.59 22.75 2 22.75H4H20H22C22.41 22.75 22.75 22.41 22.75 22C22.75 21.59 22.41 21.25 22 21.25ZM19.25 12.75V21.25H16.74V12.75H19.25ZM11.24 21.25H8.74V12.75H11.24V21.25ZM12.74 12.75H15.24V21.25H12.74V12.75ZM4.75 12.75H7.24V21.25H4.75V12.75Z" fill="#13181D"/>
</svg>
