<svg width="25" height="24" viewBox="0 0 25 24" fill="none" xmlns="http://www.w3.org/2000/svg">
<path opacity="0.4" d="M20.47 10V18C20.47 21 19.47 22 16.47 22H8.47C5.47 22 4.47 21 4.47 18V10H20.47Z" fill="#13181D"/>
<path d="M22 7V8C22 9.1 21.47 10 20 10H5C3.47 10 3 9.1 3 8V7C3 5.9 3.47 5 5 5H20C21.47 5 22 5.9 22 7Z" fill="#13181D"/>
<path opacity="0.4" d="M12.14 5H6.62C6.28 4.63 6.29 4.06 6.65 3.7L8.07 2.28C8.44 1.91 9.05 1.91 9.42 2.28L12.14 5Z" fill="#13181D"/>
<path opacity="0.4" d="M18.37 5H12.85L15.57 2.28C15.94 1.91 16.55 1.91 16.92 2.28L18.34 3.7C18.7 4.06 18.71 4.63 18.37 5Z" fill="#13181D"/>
<path opacity="0.6" d="M9.44 10V15.14C9.44 15.94 10.32 16.41 10.99 15.98L11.93 15.36C12.27 15.14 12.7 15.14 13.03 15.36L13.92 15.96C14.58 16.4 15.47 15.93 15.47 15.13V10H9.44Z" fill="#13181D"/>
</svg>
