<svg width="24" height="24" viewBox="0 0 24 24" fill="none" xmlns="http://www.w3.org/2000/svg">
<path opacity="0.4" d="M7.65 20.91C7.62 20.91 7.58 20.93 7.55 20.93C5.61 19.97 4.03 18.38 3.06 16.44C3.06 16.41 3.08 16.37 3.08 16.34C4.3 16.7 5.56 16.97 6.81 17.18C7.03 18.44 7.29 19.69 7.65 20.91Z" fill="#F97316"/>
<path opacity="0.4" d="M20.94 16.45C19.95 18.44 18.3 20.05 16.29 21.02C16.67 19.75 16.99 18.47 17.2 17.18C18.46 16.97 19.7 16.7 20.92 16.34C20.91 16.38 20.94 16.42 20.94 16.45Z" fill="#F97316"/>
<path opacity="0.4" d="M21.02 7.70998C19.76 7.32998 18.49 7.01998 17.2 6.79998C16.99 5.50998 16.68 4.22998 16.29 2.97998C18.36 3.96998 20.03 5.63998 21.02 7.70998Z" fill="#F97316"/>
<path opacity="0.4" d="M7.64998 3.09C7.28998 4.31 7.02998 5.55 6.81998 6.81C5.52998 7.01 4.24998 7.33 2.97998 7.71C3.94998 5.7 5.55998 4.05 7.54998 3.06C7.57998 3.06 7.61998 3.09 7.64998 3.09Z" fill="#F97316"/>
<path d="M15.49 6.59C13.17 6.33 10.83 6.33 8.51001 6.59C8.76001 5.22 9.08001 3.85 9.53001 2.53C9.55001 2.45 9.54001 2.39 9.55001 2.31C10.34 2.12 11.15 2 12 2C12.84 2 13.66 2.12 14.44 2.31C14.45 2.39 14.45 2.45 14.47 2.53C14.92 3.86 15.24 5.22 15.49 6.59Z" fill="#F97316"/>
<path d="M6.59 15.49C5.21 15.24 3.85 14.92 2.53 14.47C2.45 14.45 2.39 14.46 2.31 14.45C2.12 13.66 2 12.85 2 12C2 11.16 2.12 10.34 2.31 9.56001C2.39 9.55001 2.45 9.55001 2.53 9.53001C3.86 9.09001 5.21 8.76001 6.59 8.51001C6.34 10.83 6.34 13.17 6.59 15.49Z" fill="#F97316"/>
<path d="M22 12C22 12.85 21.88 13.66 21.69 14.45C21.61 14.46 21.55 14.45 21.47 14.47C20.14 14.91 18.78 15.24 17.41 15.49C17.67 13.17 17.67 10.83 17.41 8.51001C18.78 8.76001 20.15 9.08001 21.47 9.53001C21.55 9.55001 21.61 9.56001 21.69 9.56001C21.88 10.35 22 11.16 22 12Z" fill="#F97316"/>
<path d="M15.49 17.41C15.24 18.79 14.92 20.15 14.47 21.47C14.45 21.55 14.45 21.61 14.44 21.69C13.66 21.88 12.84 22 12 22C11.15 22 10.34 21.88 9.55001 21.69C9.54001 21.61 9.55001 21.55 9.53001 21.47C9.09001 20.14 8.76001 18.79 8.51001 17.41C9.67001 17.54 10.83 17.63 12 17.63C13.17 17.63 14.34 17.54 15.49 17.41Z" fill="#F97316"/>
<path d="M15.7633 15.7633C13.2622 16.0789 10.7378 16.0789 8.23667 15.7633C7.92111 13.2622 7.92111 10.7378 8.23667 8.23667C10.7378 7.92111 13.2622 7.92111 15.7633 8.23667C16.0789 10.7378 16.0789 13.2622 15.7633 15.7633Z" fill="#F97316"/>
</svg>
