<svg width="48" height="48" viewBox="0 0 48 48" fill="none" xmlns="http://www.w3.org/2000/svg">
<rect x="0.5" y="0.5" width="47" height="47" rx="23.5" stroke="#CDCED7"/>
<path d="M34 20.69C34 21.88 33.81 22.98 33.48 24H14.52C14.19 22.98 14 21.88 14 20.69C14 17.6 16.49 15.1 19.56 15.1C21.37 15.1 22.99 15.98 24 17.33C25.01 15.98 26.63 15.1 28.44 15.1C31.51 15.1 34 17.6 34 20.69Z" fill="#13181D"/>
<path opacity="0.4" d="M33.48 24C31.9 29 27.03 31.99 24.62 32.81C24.28 32.93 23.72 32.93 23.38 32.81C20.97 31.99 16.1 29 14.52 24H33.48Z" fill="#13181D"/>
</svg>
