<svg width="37" height="36" viewBox="0 0 37 36" fill="none" xmlns="http://www.w3.org/2000/svg">
<path d="M33.5 31.875H3.5C2.885 31.875 2.375 32.385 2.375 33C2.375 33.615 2.885 34.125 3.5 34.125H33.5C34.115 34.125 34.625 33.615 34.625 33C34.625 32.385 34.115 31.875 33.5 31.875Z" fill="white"/>
<path opacity="0.4" d="M26 3H11C6.5 3 5 5.685 5 9V33H32V9C32 5.685 30.5 3 26 3Z" fill="white"/>
<path d="M21.59 22.5H15.395C14.63 22.5 13.985 23.13 13.985 23.91V33H22.985V23.91C23 23.13 22.37 22.5 21.59 22.5Z" fill="white"/>
<path d="M22.25 11.625H19.625V9C19.625 8.385 19.115 7.875 18.5 7.875C17.885 7.875 17.375 8.385 17.375 9V11.625H14.75C14.135 11.625 13.625 12.135 13.625 12.75C13.625 13.365 14.135 13.875 14.75 13.875H17.375V16.5C17.375 17.115 17.885 17.625 18.5 17.625C19.115 17.625 19.625 17.115 19.625 16.5V13.875H22.25C22.865 13.875 23.375 13.365 23.375 12.75C23.375 12.135 22.865 11.625 22.25 11.625Z" fill="white"/>
</svg>
