<svg width="18" height="19" viewBox="0 0 18 19" fill="none" xmlns="http://www.w3.org/2000/svg">
<path opacity="0.4" d="M15.465 6.8375C14.6775 3.3725 11.655 1.8125 9.00001 1.8125C9.00001 1.8125 9.00001 1.8125 8.99251 1.8125C6.34501 1.8125 3.31501 3.365 2.52751 6.83C1.65001 10.7 4.02001 13.9775 6.16501 16.04C6.96001 16.805 7.98001 17.1875 9.00001 17.1875C10.02 17.1875 11.04 16.805 11.8275 16.04C13.9725 13.9775 16.3425 10.7075 15.465 6.8375Z" fill="#13181D"/>
<path d="M9.00001 10.595C10.3048 10.595 11.3625 9.53727 11.3625 8.2325C11.3625 6.92772 10.3048 5.87 9.00001 5.87C7.69524 5.87 6.63751 6.92772 6.63751 8.2325C6.63751 9.53727 7.69524 10.595 9.00001 10.595Z" fill="#13181D"/>
</svg>
