<svg width="37" height="36" viewBox="0 0 37 36" fill="none" xmlns="http://www.w3.org/2000/svg">
<path opacity="0.4" d="M29.9567 12.135C29.9567 12.36 29.9567 12.585 29.9417 12.795C27.6467 11.94 24.9467 12.465 23.1467 14.085C21.9317 12.99 20.3567 12.375 18.6767 12.375C14.9867 12.375 11.9867 15.39 11.9867 19.11C11.9867 23.355 14.1167 26.46 16.1567 28.47C15.9917 28.455 15.8567 28.425 15.7367 28.38C11.8517 27.045 3.16669 21.525 3.16669 12.135C3.16669 7.99501 6.49667 4.65002 10.6067 4.65002C13.0517 4.65002 15.2117 5.82001 16.5617 7.63501C17.9267 5.82001 20.0867 4.65002 22.5167 4.65002C26.6267 4.65002 29.9567 7.99501 29.9567 12.135Z" fill="white"/>
<path d="M27.1667 14.385C25.5617 14.385 24.1066 15.165 23.2066 16.365C22.3067 15.165 20.8667 14.385 19.2467 14.385C16.5167 14.385 14.2967 16.605 14.2967 19.365C14.2967 20.43 14.4617 21.405 14.7617 22.305C16.1717 26.76 20.5067 29.415 22.6517 30.15C22.9517 30.255 23.4467 30.255 23.7617 30.15C25.9067 29.415 30.2417 26.76 31.6517 22.305C31.9517 21.39 32.1167 20.415 32.1167 19.365C32.1167 16.605 29.8967 14.385 27.1667 14.385Z" fill="white"/>
</svg>
