<svg width="25" height="24" viewBox="0 0 25 24" fill="none" xmlns="http://www.w3.org/2000/svg">
<path d="M22.5 6V8.42C22.5 10 21.5 11 19.92 11H16.5V4.01C16.5 2.9 17.41 2 18.52 2C19.61 2.01 20.61 2.45 21.33 3.17C22.05 3.9 22.5 4.9 22.5 6Z" fill="#13181D"/>
<path opacity="0.4" d="M2.5 7V21C2.5 21.83 3.44001 22.3 4.10001 21.8L5.81 20.52C6.21 20.22 6.77 20.26 7.13 20.62L8.78999 22.29C9.17999 22.68 9.82001 22.68 10.21 22.29L11.89 20.61C12.24 20.26 12.8 20.22 13.19 20.52L14.9 21.8C15.56 22.29 16.5 21.82 16.5 21V4C16.5 2.9 17.4 2 18.5 2H7.5H6.5C3.5 2 2.5 3.79 2.5 6V7Z" fill="#13181D"/>
<path d="M12.5 9.75H6.5C6.09 9.75 5.75 9.41 5.75 9C5.75 8.59 6.09 8.25 6.5 8.25H12.5C12.91 8.25 13.25 8.59 13.25 9C13.25 9.41 12.91 9.75 12.5 9.75Z" fill="#13181D"/>
<path d="M11.75 13.75H7.25C6.84 13.75 6.5 13.41 6.5 13C6.5 12.59 6.84 12.25 7.25 12.25H11.75C12.16 12.25 12.5 12.59 12.5 13C12.5 13.41 12.16 13.75 11.75 13.75Z" fill="#13181D"/>
</svg>
