<svg width="37" height="36" viewBox="0 0 37 36" fill="none" xmlns="http://www.w3.org/2000/svg">
<path opacity="0.4" d="M14.9633 3.24L6.71333 6.33C5.13833 6.915 3.84833 8.78999 3.84833 10.47V22.62C3.84833 23.835 4.64334 25.44 5.61834 26.16L13.8683 32.325C15.3233 33.42 17.7083 33.42 19.1633 32.325L27.4133 26.16C28.3883 25.425 29.1833 23.835 29.1833 22.62V10.47C29.1833 8.78999 27.8933 6.915 26.3183 6.33L18.0683 3.24C17.2133 2.925 15.8183 2.925 14.9633 3.24Z" fill="white"/>
<path d="M29.7234 10.14H19.4484C19.1484 10.14 18.8634 10.155 18.5934 10.155C16.0134 10.305 15.3234 11.25 15.3234 14.19V15.15C15.3234 15.5642 15.6592 15.9 16.0734 15.9H33.0834C33.4976 15.9 33.8334 15.5642 33.8334 15.15V14.19C33.8334 10.95 33.0084 10.14 29.7234 10.14Z" fill="white"/>
<path d="M16.0883 17.55C15.6741 17.55 15.3383 17.8858 15.3383 18.3V21.81C15.3383 25.05 16.1634 25.875 19.4484 25.875H29.7233C32.9483 25.875 33.8034 25.095 33.8334 21.99V18.3C33.8334 17.8858 33.4976 17.55 33.0834 17.55H16.0883ZM20.7384 23.205H18.8634C18.4134 23.205 18.0533 22.845 18.0533 22.395C18.0533 21.945 18.4134 21.585 18.8634 21.585H20.7384C21.1884 21.585 21.5483 21.945 21.5483 22.395C21.5483 22.845 21.1884 23.205 20.7384 23.205ZM26.8134 23.205H23.0784C22.6284 23.205 22.2683 22.845 22.2683 22.395C22.2683 21.945 22.6284 21.585 23.0784 21.585H26.8134C27.2634 21.585 27.6234 21.945 27.6234 22.395C27.6384 22.845 27.2634 23.205 26.8134 23.205Z" fill="white"/>
</svg>
