<svg width="24" height="24" viewBox="0 0 24 24" fill="none" xmlns="http://www.w3.org/2000/svg">
<path opacity="0.4" d="M9.42001 2.16L3.92001 4.22C2.87001 4.61 2.01001 5.85999 2.01001 6.97999V15.08C2.01001 15.89 2.54002 16.96 3.19002 17.44L8.69002 21.55C9.66002 22.28 11.25 22.28 12.22 21.55L17.72 17.44C18.37 16.95 18.9 15.89 18.9 15.08V6.97999C18.9 5.85999 18.04 4.61 16.99 4.22L11.49 2.16C10.92 1.95 9.99001 1.95 9.42001 2.16Z" fill="#13181D"/>
<path d="M19.26 6.75999H12.41C12.21 6.75999 12.02 6.77 11.84 6.77C10.12 6.87 9.66003 7.50001 9.66003 9.46001V9.85001C9.66003 10.2642 9.99582 10.6 10.41 10.6H21.25C21.6642 10.6 22 10.2642 22 9.85001V9.46001C22 7.30001 21.45 6.75999 19.26 6.75999Z" fill="#13181D"/>
<path d="M10.42 11.7C10.0058 11.7 9.67004 12.0358 9.67004 12.45V14.54C9.67004 16.7 10.22 17.25 12.41 17.25H19.26C21.41 17.25 21.98 16.73 22 14.66V12.45C22 12.0358 21.6643 11.7 21.25 11.7H10.42ZM13.2701 15.47H12.0201C11.7201 15.47 11.48 15.23 11.48 14.93C11.48 14.63 11.7201 14.39 12.0201 14.39H13.2701C13.5701 14.39 13.81 14.63 13.81 14.93C13.81 15.23 13.5701 15.47 13.2701 15.47ZM17.3201 15.47H14.83C14.53 15.47 14.29 15.23 14.29 14.93C14.29 14.63 14.53 14.39 14.83 14.39H17.3201C17.6201 14.39 17.86 14.63 17.86 14.93C17.87 15.23 17.6201 15.47 17.3201 15.47Z" fill="#13181D"/>
</svg>
