<svg width="32" height="32" viewBox="0 0 32 32" fill="none" xmlns="http://www.w3.org/2000/svg">
<path opacity="0.4" d="M29.3334 12.2799V19.7199C29.3334 25.1866 27.6667 26.8533 22.2 26.8533H13.2134V22.8266C13.2134 22.3199 12.7867 21.8933 12.28 21.8933V10.1066C12.7867 10.1066 13.2134 9.67994 13.2134 9.17327V5.14661H22.2C27.6667 5.14661 29.3334 6.81327 29.3334 12.2799Z" fill="#13181D"/>
<path d="M24.6266 15.8667C24.8533 15.6534 24.9333 15.32 24.84 15.0267C24.7466 14.72 24.4933 14.5067 24.1733 14.4667L22.4666 14.2134C22.4 14.2 22.3466 14.16 22.32 14.1067L21.56 12.56C21.4266 12.28 21.1333 12.1067 20.8266 12.1067C20.5066 12.1067 20.2266 12.28 20.08 12.56L19.32 14.1067C19.2933 14.1734 19.2266 14.2134 19.16 14.2134L17.4533 14.4667C17.1466 14.5067 16.88 14.7334 16.7866 15.0267C16.6933 15.3334 16.7733 15.6534 17 15.8667L18.24 17.0667C18.2933 17.1067 18.3066 17.1867 18.2933 17.2534L18 18.9467C17.9466 19.2534 18.0666 19.5734 18.3333 19.7467C18.48 19.8534 18.64 19.9067 18.8133 19.9067C18.9466 19.9067 19.08 19.88 19.2 19.8134L20.7333 19.0134C20.7866 18.9867 20.8666 18.9867 20.92 19.0134L22.4533 19.8134C22.7333 19.96 23.0666 19.9334 23.32 19.7467C23.5733 19.56 23.7066 19.2534 23.6533 18.9334L23.36 17.24C23.3466 17.1734 23.3733 17.1067 23.4133 17.0534L24.6266 15.8667Z" fill="#13181D"/>
<path d="M12.28 10.1066V21.8933C11.7733 21.8933 11.3466 22.3199 11.3466 22.8266V26.8533H9.79995C4.53329 26.8533 2.79995 25.2799 2.67995 20.3733C2.66662 20.1199 2.77329 19.8799 2.94662 19.7066C3.11995 19.5199 3.37329 19.4266 3.61329 19.4266C5.47995 19.4266 7.01329 17.8933 7.01329 16.0133C7.01329 14.1333 5.47995 12.5866 3.61329 12.5866C3.34662 12.5866 3.11995 12.4933 2.94662 12.3066C2.77329 12.1333 2.66662 11.8799 2.67995 11.6399C2.79995 6.71994 4.53329 5.14661 9.79995 5.14661H11.3466V9.17327C11.3466 9.69327 11.7733 10.1066 12.28 10.1066Z" fill="#13181D"/>
</svg>
