<svg width="81" height="80" viewBox="0 0 81 80" fill="none" xmlns="http://www.w3.org/2000/svg">
<path opacity="0.4" d="M73.8333 30.7V49.3C73.8333 62.9666 69.6667 67.1333 56 67.1333H33.5333V57.0666C33.5333 55.8 32.4667 54.7333 31.2 54.7333V25.2666C32.4667 25.2666 33.5333 24.2 33.5333 22.9333V12.8666H56C69.6667 12.8666 73.8333 17.0333 73.8333 30.7Z" fill="#F97316"/>
<path d="M62.0667 39.6667C62.6333 39.1333 62.8333 38.3 62.6 37.5667C62.3667 36.8 61.7333 36.2667 60.9333 36.1667L56.6667 35.5333C56.5 35.5 56.3667 35.4 56.3 35.2667L54.4 31.4C54.0667 30.7 53.3333 30.2667 52.5667 30.2667C51.7667 30.2667 51.0667 30.7 50.7 31.4L48.8 35.2667C48.7333 35.4333 48.5667 35.5333 48.4 35.5333L44.1333 36.1667C43.3667 36.2667 42.7 36.8333 42.4667 37.5667C42.2333 38.3333 42.4333 39.1333 43 39.6667L46.1 42.6667C46.2333 42.7667 46.2667 42.9667 46.2333 43.1333L45.5 47.3667C45.3667 48.1333 45.6667 48.9333 46.3333 49.3667C46.7 49.6333 47.1 49.7667 47.5333 49.7667C47.8667 49.7667 48.2 49.7 48.5 49.5333L52.3333 47.5333C52.4667 47.4667 52.6667 47.4667 52.8 47.5333L56.6333 49.5333C57.3333 49.9 58.1667 49.8333 58.8 49.3667C59.4333 48.9 59.7667 48.1333 59.6333 47.3333L58.9 43.1C58.8667 42.9333 58.9333 42.7667 59.0333 42.6333L62.0667 39.6667Z" fill="#F97316"/>
<path d="M31.2 25.2666V54.7333C29.9333 54.7333 28.8667 55.8 28.8667 57.0666V67.1333H25C11.8333 67.1333 7.50001 63.2 7.20001 50.9333C7.16667 50.3 7.43334 49.7 7.86667 49.2666C8.30001 48.8 8.93334 48.5666 9.53334 48.5666C14.2 48.5666 18.0333 44.7333 18.0333 40.0333C18.0333 35.3333 14.2 31.4666 9.53334 31.4666C8.86667 31.4666 8.30001 31.2333 7.86667 30.7666C7.43334 30.3333 7.16667 29.7 7.20001 29.1C7.50001 16.8 11.8333 12.8666 25 12.8666H28.8667V22.9333C28.8667 24.2333 29.9333 25.2666 31.2 25.2666Z" fill="#F97316"/>
</svg>
