<svg width="24" height="24" viewBox="0 0 24 24" fill="none" xmlns="http://www.w3.org/2000/svg">
<path opacity="0.4" d="M18.35 19.68C17.8 21.09 16.46 22 14.95 22H9.05001C7.53001 22 6.20001 21.09 5.65001 19.68C5.10001 18.26 5.48001 16.69 6.60001 15.67L10.65 12H13.36L17.4 15.67C18.52 16.69 18.89 18.26 18.35 19.68Z" fill="#13181D"/>
<path d="M13.82 18.14H10.18C9.8 18.14 9.5 17.83 9.5 17.46C9.5 17.08 9.81 16.78 10.18 16.78H13.82C14.2 16.78 14.5 17.09 14.5 17.46C14.5 17.83 14.19 18.14 13.82 18.14Z" fill="#13181D"/>
<path d="M18.35 4.32C17.8 2.91 16.46 2 14.95 2H9.05001C7.54001 2 6.20001 2.91 5.65001 4.32C5.11001 5.74 5.48001 7.31 6.61001 8.33L10.65 12H13.36L17.4 8.33C18.52 7.31 18.89 5.74 18.35 4.32ZM13.82 7.23H10.18C9.80001 7.23 9.50001 6.92 9.50001 6.55C9.50001 6.18 9.81001 5.87 10.18 5.87H13.82C14.2 5.87 14.5 6.18 14.5 6.55C14.5 6.92 14.19 7.23 13.82 7.23Z" fill="#13181D"/>
</svg>
