<svg width="24" height="24" viewBox="0 0 24 24" fill="none" xmlns="http://www.w3.org/2000/svg">
<path opacity="0.4" d="M21.08 8.58003V15.42C21.08 16.54 20.48 17.58 19.51 18.15L13.57 21.58C12.6 22.14 11.4 22.14 10.42 21.58L4.47997 18.15C3.50997 17.59 2.90997 16.55 2.90997 15.42V8.58003C2.90997 7.46003 3.50997 6.41999 4.47997 5.84999L10.42 2.42C11.39 1.86 12.59 1.86 13.57 2.42L19.51 5.84999C20.48 6.41999 21.08 7.45003 21.08 8.58003Z" fill="#13181D"/>
<path d="M12 12C13.2868 12 14.33 10.9568 14.33 9.66998C14.33 8.38316 13.2868 7.34003 12 7.34003C10.7132 7.34003 9.66998 8.38316 9.66998 9.66998C9.66998 10.9568 10.7132 12 12 12Z" fill="#13181D"/>
<path d="M14.68 16.66C15.49 16.66 15.96 15.76 15.51 15.09C14.83 14.08 13.51 13.4 12 13.4C10.49 13.4 9.16998 14.08 8.48998 15.09C8.03998 15.76 8.50998 16.66 9.31998 16.66H14.68Z" fill="#13181D"/>
</svg>
