<svg width="71" height="50" viewBox="0 0 71 50" fill="none" xmlns="http://www.w3.org/2000/svg">
<g clip-path="url(#clip0_19_1402)">
<path d="M38.957 24.4494C43.3786 22.4439 44.0325 15.8994 37.7432 15.8994H30.4597L27.768 21.1772H29.0347L25.8152 33.7912H34.2597C40.4204 33.8439 43.1911 26.5895 38.957 24.4494ZM34.2597 29.1996H32.1486L32.9402 26.3496H34.9457C37.3208 26.8245 35.8431 29.305 34.2597 29.1996ZM35.5264 23.1299H33.732L34.2597 20.6494H36.2652C38.2031 21.1244 36.5293 23.2356 35.5264 23.1299Z" fill="#005FAF" stroke="#005FAF" stroke-width="0.151336"/>
<path d="M56.247 22.6399L59.012 17.7587L55.2706 15.8071L54.7825 16.4094C52.7641 15.341 42.195 16.8162 41.5332 27.2422C41.9288 35.9883 51.7291 34.415 52.6904 33.8601L55.3859 28.2881C52.746 30.0269 47.3406 30.8617 47.1119 25.6383C47.586 21.331 52.6715 19.7225 56.247 22.6399ZM70.0449 15.8994H61.5445L58.8425 21.0193H60.2306L53.8245 33.7912H60.0252L61.2983 30.7106H65.1045L65.1994 33.7912H70.9073L70.0449 15.8994ZM63.0227 26.563L65.1043 21.5942L65.1992 26.563H63.0227Z" fill="#005FAF" stroke="#005FAF" stroke-width="0.151336"/>
<path d="M16.9615 32.9371L17.2917 32.8413L16.9295 32.3408L16.9615 32.9371ZM11.5403 32.8519L11.4765 33.2992C11.6408 33.2832 11.8431 33.4248 11.9238 33.1075C11.9178 32.8602 11.7295 32.8466 11.5403 32.8519ZM14.1711 32.8413C14.1438 32.7195 14.0421 32.6297 13.7877 32.7136L13.8729 33.1714C14.0819 33.125 14.1893 33.0014 14.1711 32.8413ZM8.22804 32.4666L8.12634 32.8734C8.28979 32.8802 8.48123 33.0128 8.58973 32.7717C8.597 32.6206 8.6032 32.4702 8.22804 32.4666ZM13.9475 33.5123L14.0221 33.981C14.1966 33.9854 14.3558 33.8805 14.3096 33.6615C14.2651 33.4509 14.0882 33.4842 13.9475 33.5123Z" fill="#005FAF"/>
<path d="M20.8737 16.1406C15.2339 13.2675 8.49837 13.3474 3.12474 16.0153C0.353782 20.8933 0.265553 27.7184 3.12474 33.7634C9.04484 36.7592 15.5925 36.5619 20.9153 33.8887C23.4169 28.7564 23.83 22.5807 20.8737 16.1406ZM11.3486 30.7064L11.0143 30.7102C10.9315 29.7864 10.7107 29.0101 10.2371 28.4159C8.06494 25.692 3.62475 27.7428 4.76567 23.1136C5.35891 20.747 12.1256 19.3512 11.3486 30.7064ZM4.77369 26.1342C5.24798 27.0996 8.21946 27.2578 9.25096 27.9967C10.8872 29.1688 10.6523 30.7106 10.6523 30.7106H10.2664C9.50672 28.382 7.37455 30.2258 5.66672 29.5986C4.59451 29.2173 3.81604 27.5642 4.77369 26.1342ZM10.1876 33.7254L10.3474 32.458L10.6349 32.4793L10.507 33.8745C10.3781 34.489 9.46177 34.4069 9.34615 33.8212L9.49522 32.3728L9.83602 32.4262L9.68696 33.6402C9.70587 34.042 10.1089 34.0179 10.1876 33.7254ZM8.65742 34.0715L8.32963 33.9924C8.36807 33.7215 8.68935 33.1703 8.05435 33.1703L7.87759 33.8907L7.5159 33.8229L7.90014 32.0935C8.83933 32.1958 8.9215 32.4572 8.94012 32.7378C8.90304 32.9554 8.84508 33.1073 8.65757 33.1446C8.87701 33.3437 8.66015 33.7611 8.65742 34.0715ZM6.5755 32.1346C6.48515 32.2544 6.3043 32.6732 6.27812 33.0069C6.25028 33.3605 6.59002 33.2861 6.67462 33.2448C6.74287 33.2116 6.79357 32.9276 6.79357 32.9276L6.55567 32.8483L6.63497 32.6105L7.1704 32.7889L6.91267 33.6812L6.6946 33.6216L6.71442 33.4828C6.44747 33.6045 5.9588 33.5132 5.90145 33.2053C5.84409 32.9578 6.01782 32.2077 6.29795 31.8572C6.5702 31.5163 7.2335 31.8494 7.2497 32.0554C7.26574 32.2606 7.18477 32.4916 7.18477 32.4916L6.93507 32.4445C6.93507 32.4445 6.95035 32.3703 6.97215 32.2535C6.99515 32.1297 6.67235 32.0058 6.5755 32.1346ZM11.4444 33.5868L11.3806 34.3537L11.1144 34.3431L11.2102 32.5218C11.875 32.5356 12.256 32.6276 12.2433 33.0971C12.2037 33.7384 11.6843 33.5942 11.4444 33.5868ZM12.1071 30.7105H11.6617C11.6222 29.1333 11.9255 26.2484 11.0968 24.1253C10.4689 22.5158 8.87988 21.7918 8.52773 20.4917C7.97021 18.4338 8.91908 16.2072 12.1071 16.0358C14.871 16.3195 15.7201 18.4532 15.2487 20.4398C14.4381 22.4261 13.6274 22.1406 12.6182 24.1192C11.7939 26.2402 12.1077 29.0189 12.1071 30.7105ZM17.0466 33.6294L16.7377 33.736L16.6417 31.9041L17.0039 31.8083L17.8986 33.3206L17.6536 33.4804L17.3553 33.0545L17.0145 33.1823L17.0466 33.6294ZM13.4431 30.7105H13.0869C13.3805 26.6598 18.4706 27.5399 18.9358 26.1342C19.7403 27.5277 19.4511 28.7027 18.6111 29.305C16.5235 30.8023 14.5218 28.197 13.4431 30.7105ZM15.3319 32.7562L15.4917 33.5977C15.5912 33.7915 15.6587 33.7557 15.8112 33.7361C15.9881 33.6081 15.9512 33.4834 15.9178 33.3207L16.2266 33.2782C16.3071 33.8878 16.0173 33.95 15.8006 33.9917C15.3359 34.025 15.2448 33.9345 15.119 33.3315C15.0458 32.8153 14.9192 32.2702 15.3533 32.1706C16.0658 32.0618 16.0237 32.3824 16.0882 32.6072L15.7793 32.6606C15.7299 32.4675 15.659 32.3909 15.5023 32.4051C15.3596 32.4707 15.3011 32.5768 15.3319 32.7562ZM14.6822 33.6294C14.6971 33.8947 14.607 34.0709 14.4372 34.1301L13.7129 34.2791L13.4254 32.5218C13.574 32.4976 14.3027 32.2307 14.4798 32.7137C14.5671 33.0087 14.4766 33.1145 14.3732 33.2461C14.5692 33.3091 14.6353 33.4616 14.6822 33.6294ZM12.8223 24.8107C14.4359 20.2676 18.128 21.0704 18.9469 23.1137C20.0687 27.2139 16.4564 26.0895 14.1424 27.7708C13.2679 28.5314 12.8077 29.404 12.8008 30.7268H12.4043C12.3806 28.0624 12.3375 26.1757 12.8223 24.8107Z" fill="#005FAF"/>
</g>
<defs>
<clipPath id="clip0_19_1402">
<rect width="70" height="21.952" fill="white" transform="translate(1 14)"/>
</clipPath>
</defs>
</svg>
