<svg xmlns="http://www.w3.org/2000/svg" xmlns:xlink="http://www.w3.org/1999/xlink" width="500" zoomAndPan="magnify" viewBox="0 0 375 374.999991" height="500" preserveAspectRatio="xMidYMid meet" version="1.0"><defs><g/></defs><rect x="-37.5" width="450" fill="#ffffff" y="-37.499999" height="449.999989" fill-opacity="1"/><rect x="-37.5" width="450" fill="#ffffff" y="-37.499999" height="449.999989" fill-opacity="1"/><path stroke-linecap="butt" transform="matrix(0.75, 0, 0, 0.75, 91.066859, 208.021597)" fill="none" stroke-linejoin="miter" d="M -0.000603027 6.002455 L 148.692115 6.002455 " stroke="#000000" stroke-width="12" stroke-opacity="1" stroke-miterlimit="4"/><g fill="#000000" fill-opacity="1"><g transform="translate(13.282688, 193.475489)"><g><path d="M 27.140625 -6.84375 L 12.234375 -6.84375 L 9.46875 0 L -0.703125 0 L 14.84375 -35.234375 L 24.671875 -35.234375 L 40.28125 0 L 29.90625 0 Z M 24.21875 -14.203125 L 19.6875 -25.46875 L 15.15625 -14.203125 Z M 24.21875 -14.203125 "/></g></g></g><g fill="#000000" fill-opacity="1"><g transform="translate(57.23076, 193.475489)"><g><path d="M 11.03125 -27.34375 L 0.203125 -27.34375 L 0.203125 -35.234375 L 31.765625 -35.234375 L 31.765625 -27.34375 L 21 -27.34375 L 21 0 L 11.03125 0 Z M 11.03125 -27.34375 "/></g></g></g><g fill="#000000" fill-opacity="1"><g transform="translate(93.577378, 193.475489)"><g><path d="M 18.921875 -9.359375 L 13.484375 -9.359375 L 13.484375 0 L 3.53125 0 L 3.53125 -35.234375 L 19.640625 -35.234375 C 22.828125 -35.234375 25.59375 -34.703125 27.9375 -33.640625 C 30.289062 -32.585938 32.101562 -31.078125 33.375 -29.109375 C 34.65625 -27.148438 35.296875 -24.847656 35.296875 -22.203125 C 35.296875 -19.648438 34.695312 -17.425781 33.5 -15.53125 C 32.3125 -13.632812 30.609375 -12.148438 28.390625 -11.078125 L 36 0 L 25.328125 0 Z M 25.21875 -22.203125 C 25.21875 -23.847656 24.695312 -25.125 23.65625 -26.03125 C 22.613281 -26.9375 21.070312 -27.390625 19.03125 -27.390625 L 13.484375 -27.390625 L 13.484375 -17.0625 L 19.03125 -17.0625 C 21.070312 -17.0625 22.613281 -17.503906 23.65625 -18.390625 C 24.695312 -19.285156 25.21875 -20.554688 25.21875 -22.203125 Z M 25.21875 -22.203125 "/></g></g></g><g fill="#000000" fill-opacity="1"><g transform="translate(135.209769, 193.475489)"><g><path d="M 27.140625 -6.84375 L 12.234375 -6.84375 L 9.46875 0 L -0.703125 0 L 14.84375 -35.234375 L 24.671875 -35.234375 L 40.28125 0 L 29.90625 0 Z M 24.21875 -14.203125 L 19.6875 -25.46875 L 15.15625 -14.203125 Z M 24.21875 -14.203125 "/></g></g></g><g fill="#000000" fill-opacity="1"><g transform="translate(179.157842, 193.475489)"><g><path d="M 3.53125 -35.234375 L 13.484375 -35.234375 L 13.484375 0 L 3.53125 0 Z M 3.53125 -35.234375 "/></g></g></g><g fill="#000000" fill-opacity="1"><g transform="translate(200.603596, 193.475489)"><g><path d="M 37.046875 -35.234375 L 37.046875 0 L 28.84375 0 L 13.296875 -18.78125 L 13.296875 0 L 3.53125 0 L 3.53125 -35.234375 L 11.734375 -35.234375 L 27.28125 -16.46875 L 27.28125 -35.234375 Z M 37.046875 -35.234375 "/></g></g></g><g fill="#000000" fill-opacity="1"><g transform="translate(245.558473, 193.475489)"><g><path d="M 3.53125 -35.234375 L 20.1875 -35.234375 C 24.050781 -35.234375 27.472656 -34.507812 30.453125 -33.0625 C 33.441406 -31.625 35.757812 -29.578125 37.40625 -26.921875 C 39.050781 -24.273438 39.875 -21.175781 39.875 -17.625 C 39.875 -14.0625 39.050781 -10.953125 37.40625 -8.296875 C 35.757812 -5.648438 33.441406 -3.601562 30.453125 -2.15625 C 27.472656 -0.71875 24.050781 0 20.1875 0 L 3.53125 0 Z M 19.78125 -7.953125 C 22.800781 -7.953125 25.222656 -8.804688 27.046875 -10.515625 C 28.878906 -12.234375 29.796875 -14.601562 29.796875 -17.625 C 29.796875 -20.644531 28.878906 -23.007812 27.046875 -24.71875 C 25.222656 -26.425781 22.800781 -27.28125 19.78125 -27.28125 L 13.484375 -27.28125 L 13.484375 -7.953125 Z M 19.78125 -7.953125 "/></g></g></g><g fill="#000000" fill-opacity="1"><g transform="translate(291.52018, 193.475489)"><g><path d="M 31.8125 -7.703125 L 31.8125 0 L 3.53125 0 L 3.53125 -35.234375 L 31.15625 -35.234375 L 31.15625 -27.53125 L 13.390625 -27.53125 L 13.390625 -21.59375 L 29.046875 -21.59375 L 29.046875 -14.140625 L 13.390625 -14.140625 L 13.390625 -7.703125 Z M 31.8125 -7.703125 "/></g></g></g><g fill="#000000" fill-opacity="1"><g transform="translate(329.729396, 193.475489)"><g><path d="M 15.90625 0.703125 C 13.050781 0.703125 10.28125 0.351562 7.59375 -0.34375 C 4.914062 -1.050781 2.738281 -1.992188 1.0625 -3.171875 L 4.328125 -10.515625 C 5.910156 -9.484375 7.738281 -8.644531 9.8125 -8 C 11.894531 -7.363281 13.941406 -7.046875 15.953125 -7.046875 C 19.785156 -7.046875 21.703125 -8.003906 21.703125 -9.921875 C 21.703125 -10.921875 21.15625 -11.664062 20.0625 -12.15625 C 18.96875 -12.644531 17.210938 -13.15625 14.796875 -13.6875 C 12.148438 -14.257812 9.9375 -14.875 8.15625 -15.53125 C 6.375 -16.1875 4.84375 -17.234375 3.5625 -18.671875 C 2.289062 -20.117188 1.65625 -22.066406 1.65625 -24.515625 C 1.65625 -26.660156 2.242188 -28.597656 3.421875 -30.328125 C 4.597656 -32.054688 6.351562 -33.425781 8.6875 -34.4375 C 11.019531 -35.445312 13.878906 -35.953125 17.265625 -35.953125 C 19.578125 -35.953125 21.859375 -35.691406 24.109375 -35.171875 C 26.359375 -34.648438 28.34375 -33.882812 30.0625 -32.875 L 26.984375 -25.46875 C 23.628906 -27.28125 20.375 -28.1875 17.21875 -28.1875 C 15.238281 -28.1875 13.796875 -27.894531 12.890625 -27.3125 C 11.984375 -26.726562 11.53125 -25.960938 11.53125 -25.015625 C 11.53125 -24.078125 12.066406 -23.375 13.140625 -22.90625 C 14.210938 -22.4375 15.941406 -21.953125 18.328125 -21.453125 C 21.015625 -20.878906 23.238281 -20.265625 25 -19.609375 C 26.757812 -18.953125 28.285156 -17.910156 29.578125 -16.484375 C 30.867188 -15.054688 31.515625 -13.117188 31.515625 -10.671875 C 31.515625 -8.554688 30.925781 -6.640625 29.75 -4.921875 C 28.570312 -3.210938 26.804688 -1.847656 24.453125 -0.828125 C 22.109375 0.191406 19.257812 0.703125 15.90625 0.703125 Z M 15.90625 0.703125 "/></g></g></g><g fill="#000000" fill-opacity="1"><g transform="translate(208.34378, 215.328037)"><g><path d="M 2.71875 -6.828125 L 0.046875 -6.828125 L 0.046875 -7.796875 L 6.5 -7.796875 L 6.5 -6.828125 L 3.828125 -6.828125 L 3.828125 0 L 2.71875 0 Z M 2.71875 -6.828125 "/></g></g></g><g fill="#000000" fill-opacity="1"><g transform="translate(217.646061, 215.328037)"><g><path d="M 1.171875 -7.796875 L 2.28125 -7.796875 L 2.28125 0 L 1.171875 0 Z M 1.171875 -7.796875 "/></g></g></g><g fill="#000000" fill-opacity="1"><g transform="translate(223.863031, 215.328037)"><g><path d="M 4.65625 0.09375 C 3.875 0.09375 3.171875 -0.078125 2.546875 -0.421875 C 1.921875 -0.773438 1.425781 -1.253906 1.0625 -1.859375 C 0.707031 -2.460938 0.53125 -3.144531 0.53125 -3.90625 C 0.53125 -4.65625 0.707031 -5.332031 1.0625 -5.9375 C 1.425781 -6.539062 1.921875 -7.015625 2.546875 -7.359375 C 3.179688 -7.710938 3.890625 -7.890625 4.671875 -7.890625 C 5.273438 -7.890625 5.828125 -7.785156 6.328125 -7.578125 C 6.835938 -7.378906 7.269531 -7.078125 7.625 -6.671875 L 6.90625 -5.96875 C 6.320312 -6.582031 5.59375 -6.890625 4.71875 -6.890625 C 4.132812 -6.890625 3.609375 -6.757812 3.140625 -6.5 C 2.671875 -6.238281 2.304688 -5.878906 2.046875 -5.421875 C 1.785156 -4.972656 1.65625 -4.46875 1.65625 -3.90625 C 1.65625 -3.332031 1.785156 -2.816406 2.046875 -2.359375 C 2.304688 -1.910156 2.671875 -1.554688 3.140625 -1.296875 C 3.609375 -1.035156 4.132812 -0.90625 4.71875 -0.90625 C 5.582031 -0.90625 6.3125 -1.21875 6.90625 -1.84375 L 7.625 -1.140625 C 7.269531 -0.734375 6.835938 -0.425781 6.328125 -0.21875 C 5.816406 -0.0078125 5.257812 0.09375 4.65625 0.09375 Z M 4.65625 0.09375 "/></g></g></g><g fill="#000000" fill-opacity="1"><g transform="translate(234.680122, 215.328037)"><g><path d="M 3.703125 -3.46875 L 2.28125 -2.015625 L 2.28125 0 L 1.171875 0 L 1.171875 -7.796875 L 2.28125 -7.796875 L 2.28125 -3.4375 L 6.515625 -7.796875 L 7.78125 -7.796875 L 4.453125 -4.296875 L 8 0 L 6.703125 0 Z M 3.703125 -3.46875 "/></g></g></g><g fill="#000000" fill-opacity="1"><g transform="translate(245.452667, 215.328037)"><g><path d="M 6.828125 -0.96875 L 6.828125 0 L 1.171875 0 L 1.171875 -7.796875 L 6.671875 -7.796875 L 6.671875 -6.828125 L 2.28125 -6.828125 L 2.28125 -4.4375 L 6.1875 -4.4375 L 6.1875 -3.484375 L 2.28125 -3.484375 L 2.28125 -0.96875 Z M 6.828125 -0.96875 "/></g></g></g><g fill="#000000" fill-opacity="1"><g transform="translate(255.679436, 215.328037)"><g><path d="M 2.71875 -6.828125 L 0.046875 -6.828125 L 0.046875 -7.796875 L 6.5 -7.796875 L 6.5 -6.828125 L 3.828125 -6.828125 L 3.828125 0 L 2.71875 0 Z M 2.71875 -6.828125 "/></g></g></g></svg>