<svg width="171" height="40" viewBox="0 0 171 40" fill="none" xmlns="http://www.w3.org/2000/svg">
<path d="M25.0925 1.05386L21.1595 0L17.8451 12.3696L14.8528 1.20224L10.9197 2.2561L14.1527 14.3216L6.10008 6.26898L3.22089 9.14818L12.0536 17.981L1.05386 15.0336L0 18.9666L12.0186 22.187C11.881 21.5935 11.8082 20.9751 11.8082 20.3397C11.8082 15.8421 15.4542 12.1961 19.9518 12.1961C24.4494 12.1961 28.0954 15.8421 28.0954 20.3397C28.0954 20.971 28.0235 21.5856 27.8876 22.1756L38.8103 25.1023L39.8642 21.1693L27.7977 17.9361L38.7982 14.9885L37.7443 11.0555L25.6784 14.2885L33.731 6.23592L30.8518 3.35673L22.1416 12.067L25.0925 1.05386Z" fill="#F97316"/>
<path d="M27.8769 22.2214C27.5397 23.647 26.8278 24.9277 25.851 25.9538L33.764 33.8669L36.6432 30.9877L27.8769 22.2214Z" fill="#F97316"/>
<path d="M25.771 26.0366C24.7824 27.0463 23.5331 27.7998 22.1321 28.1881L25.0115 38.9341L28.9445 37.8802L25.771 26.0366Z" fill="#F97316"/>
<path d="M21.9852 28.2274C21.3352 28.3945 20.6539 28.4833 19.9518 28.4833C19.1996 28.4833 18.4712 28.3813 17.7797 28.1904L14.8977 38.9462L18.8307 40L21.9852 28.2274Z" fill="#F97316"/>
<path d="M17.6407 28.1507C16.2611 27.7431 15.034 26.98 14.0656 25.9674L6.13312 33.8999L9.01231 36.7791L17.6407 28.1507Z" fill="#F97316"/>
<path d="M13.9994 25.8973C13.0476 24.8783 12.3543 23.6147 12.0243 22.2111L1.06592 25.1474L2.11977 29.0804L13.9994 25.8973Z" fill="#F97316"/>
<path d="M57.3701 11.99V22.264C57.3701 24.0093 56.8935 25.344 55.9401 26.268C55.0015 27.192 53.7035 27.654 52.0461 27.654C50.2861 27.654 48.8781 27.1627 47.8221 26.18C46.7808 25.1973 46.2601 23.782 46.2601 21.934H50.5281C50.5428 23.1513 50.9901 23.76 51.8701 23.76C52.6621 23.76 53.0581 23.2613 53.0581 22.264V11.99H57.3701ZM72.5718 15.158V27.5H68.2378V25.74C67.8711 26.2973 67.3651 26.752 66.7198 27.104C66.0745 27.4413 65.3338 27.61 64.4978 27.61C63.0605 27.61 61.9238 27.1407 61.0878 26.202C60.2665 25.2487 59.8558 23.958 59.8558 22.33V15.158H64.1458V21.78C64.1458 22.484 64.3291 23.0413 64.6958 23.452C65.0771 23.848 65.5758 24.046 66.1918 24.046C66.8225 24.046 67.3211 23.848 67.6878 23.452C68.0545 23.0413 68.2378 22.484 68.2378 21.78V15.158H72.5718ZM74.3218 21.318C74.3218 20.042 74.5492 18.9273 75.0038 17.974C75.4732 17.0207 76.1038 16.2873 76.8958 15.774C77.7025 15.2607 78.5972 15.004 79.5798 15.004C80.4305 15.004 81.1638 15.1727 81.7798 15.51C82.3958 15.8473 82.8725 16.302 83.2098 16.874V15.158H87.5218V27.5H83.2098V25.784C82.8725 26.356 82.3885 26.8107 81.7578 27.148C81.1418 27.4853 80.4158 27.654 79.5798 27.654C78.5972 27.654 77.7025 27.3973 76.8958 26.884C76.1038 26.3707 75.4732 25.6373 75.0038 24.684C74.5492 23.716 74.3218 22.594 74.3218 21.318ZM83.2098 21.318C83.2098 20.526 82.9898 19.9027 82.5498 19.448C82.1245 18.9933 81.5965 18.766 80.9658 18.766C80.3205 18.766 79.7852 18.9933 79.3598 19.448C78.9345 19.888 78.7218 20.5113 78.7218 21.318C78.7218 22.11 78.9345 22.7407 79.3598 23.21C79.7852 23.6647 80.3205 23.892 80.9658 23.892C81.5965 23.892 82.1245 23.6647 82.5498 23.21C82.9898 22.7553 83.2098 22.1247 83.2098 21.318ZM94.2909 17.336C94.7749 16.632 95.3616 16.0747 96.0509 15.664C96.7403 15.2533 97.4809 15.048 98.2729 15.048V19.646H97.0629C96.1243 19.646 95.4276 19.8293 94.9729 20.196C94.5183 20.5627 94.2909 21.2007 94.2909 22.11V27.5H89.9789V15.158H94.2909V17.336ZM99.1148 21.318C99.1148 20.042 99.3421 18.9273 99.7968 17.974C100.266 17.0207 100.897 16.2873 101.689 15.774C102.495 15.2607 103.39 15.004 104.373 15.004C105.223 15.004 105.957 15.1727 106.573 15.51C107.189 15.8473 107.665 16.302 108.003 16.874V15.158H112.315V27.5H108.003V25.784C107.665 26.356 107.181 26.8107 106.551 27.148C105.935 27.4853 105.209 27.654 104.373 27.654C103.39 27.654 102.495 27.3973 101.689 26.884C100.897 26.3707 100.266 25.6373 99.7968 24.684C99.3421 23.716 99.1148 22.594 99.1148 21.318ZM108.003 21.318C108.003 20.526 107.783 19.9027 107.343 19.448C106.917 18.9933 106.389 18.766 105.759 18.766C105.113 18.766 104.578 18.9933 104.153 19.448C103.727 19.888 103.515 20.5113 103.515 21.318C103.515 22.11 103.727 22.7407 104.153 23.21C104.578 23.6647 105.113 23.892 105.759 23.892C106.389 23.892 106.917 23.6647 107.343 23.21C107.783 22.7553 108.003 22.1247 108.003 21.318ZM126.454 11.99V15.422H122.318V27.5H118.006V15.422H113.914V11.99H126.454ZM130.227 14.014C129.465 14.014 128.849 13.8087 128.379 13.398C127.925 12.9727 127.697 12.4447 127.697 11.814C127.697 11.1687 127.925 10.6333 128.379 10.208C128.849 9.78267 129.465 9.57 130.227 9.57C130.975 9.57 131.577 9.78267 132.031 10.208C132.501 10.6333 132.735 11.1687 132.735 11.814C132.735 12.4447 132.501 12.9727 132.031 13.398C131.577 13.8087 130.975 14.014 130.227 14.014ZM132.361 15.158V27.5H128.049V15.158H132.361ZM142.539 27.5L139.129 22.44V27.5H134.817V11.22H139.129V19.998L142.539 15.158H147.709L142.847 21.362L147.797 27.5H142.539ZM160.853 21.186C160.853 21.5233 160.831 21.8607 160.787 22.198H152.625C152.669 22.8727 152.852 23.3787 153.175 23.716C153.512 24.0387 153.938 24.2 154.451 24.2C155.17 24.2 155.683 23.8773 155.991 23.232H160.589C160.398 24.0827 160.024 24.8453 159.467 25.52C158.924 26.18 158.235 26.7007 157.399 27.082C156.563 27.4633 155.639 27.654 154.627 27.654C153.41 27.654 152.324 27.3973 151.371 26.884C150.432 26.3707 149.692 25.6373 149.149 24.684C148.621 23.7307 148.357 22.6087 148.357 21.318C148.357 20.0273 148.621 18.9127 149.149 17.974C149.677 17.0207 150.41 16.2873 151.349 15.774C152.302 15.2607 153.395 15.004 154.627 15.004C155.844 15.004 156.922 15.2533 157.861 15.752C158.8 16.2507 159.533 16.9693 160.061 17.908C160.589 18.832 160.853 19.9247 160.853 21.186ZM156.453 20.108C156.453 19.58 156.277 19.1693 155.925 18.876C155.573 18.568 155.133 18.414 154.605 18.414C154.077 18.414 153.644 18.5607 153.307 18.854C152.97 19.1327 152.75 19.5507 152.647 20.108H156.453ZM169.9 23.826V27.5H168.03C164.876 27.5 163.3 25.938 163.3 22.814V18.744H161.782V15.158H163.3V12.166H167.634V15.158H169.878V18.744H167.634V22.88C167.634 23.2173 167.707 23.4593 167.854 23.606C168.015 23.7527 168.279 23.826 168.646 23.826H169.9Z" fill="#13181D"/>
</svg>
