<svg width="361" height="504" viewBox="0 0 361 504" fill="none" xmlns="http://www.w3.org/2000/svg">
<path fill-rule="evenodd" clip-rule="evenodd" d="M0 30C0 13.4315 13.4315 0 30 0H331C347.569 0 361 13.4315 361 30V361.585C360.67 361.559 360.337 361.545 360 361.545C353.373 361.545 348 366.674 348 373C348 379.326 353.373 384.454 360 384.454C360.337 384.454 360.67 384.441 361 384.415V474C361 490.569 347.569 504 331 504H30C13.4314 504 0 490.569 0 474V384.415C6.15953 383.93 11 379.005 11 373C11 366.995 6.15953 362.07 0 361.585V30Z" fill="white"/>
</svg>
